<svg width="508" height="119" viewBox="0 0 508 119" fill="none" xmlns="http://www.w3.org/2000/svg">
<path fill-rule="evenodd" clip-rule="evenodd" d="M48.2441 1.01847C47.1039 1.59653 45.7874 2.42722 45.3184 2.86457L44.4656 3.65986V9.30103C44.4656 16.7199 44.361 16.6018 48.6688 14.0538C51.8662 12.1625 51.7651 12.4211 51.7655 6.12096C51.7657 3.36077 51.6688 0.847248 51.5503 0.535104C51.2392 -0.282754 50.6373 -0.194708 48.2441 1.01847ZM33.0039 11.7526C32.8577 11.9289 32.7442 14.1537 32.7004 17.705L32.6302 23.3761L33.1833 23.9689C33.4875 24.295 34.3591 24.9104 35.1203 25.3365C37.2155 26.5097 37.1653 26.3566 37.1653 31.5628C37.1653 35.1524 37.2343 36.216 37.504 36.7843C37.7637 37.3316 38.4389 37.8429 40.396 38.9749C42.9432 40.4478 43.698 40.688 44.2002 40.1858C44.6245 39.7615 44.5703 29.128 44.1395 28.2954C43.944 27.9171 43.2416 27.3452 42.3833 26.8652C39.9908 25.5272 40.0414 25.6701 40.0403 20.2349C40.0396 16.0972 39.9932 15.4879 39.6344 14.9002C39.3565 14.4451 38.423 13.802 36.6636 12.8538C34.0474 11.444 33.4173 11.2544 33.0039 11.7526ZM68.4682 23.3318C67.1298 24.1258 65.8629 24.9923 65.6525 25.2575C65.3189 25.6788 65.2696 26.317 65.2651 30.2751C65.2605 34.1467 65.2032 34.9218 64.8729 35.5742C64.534 36.2441 63.2963 37.0142 54.8631 41.8023C47.8147 45.8042 45.1366 47.4348 44.8539 47.8961C44.5143 48.4502 44.4678 49.1816 44.4667 53.9854C44.4658 58.6545 44.5158 59.4952 44.8132 59.7925C45.3286 60.3077 45.8416 60.2228 47.2703 59.3848C48.2866 58.7888 58.9926 52.7065 65.8282 48.8418C67.8652 47.6901 67.7897 47.9255 67.9152 42.3264C68.0428 36.6273 67.9218 36.9493 70.5037 35.4395C71.2981 34.9749 72.0755 34.3325 72.2487 33.9978C72.6666 33.1897 72.7086 22.5474 72.2954 22.1341C71.781 21.6198 70.8773 21.9027 68.4682 23.3318ZM16.6359 41.3804C16.2631 41.7532 16.2616 52.3588 16.6341 53.1764C16.7863 53.5102 17.5214 54.1259 18.3703 54.6301C21.0174 56.2027 20.8882 55.8627 21.0161 61.5908C21.1263 66.5241 21.1291 66.5491 21.6798 67.0734C21.9839 67.363 24.622 68.9458 27.5421 70.5906C30.4623 72.2354 35.1694 74.8973 38.0026 76.5058C43.4277 79.5859 44.0754 79.8051 44.363 78.6592C44.4318 78.3847 44.4583 75.7008 44.4216 72.6953C44.3586 67.5298 44.3302 67.2059 43.902 66.7778C43.6526 66.5289 39.1804 63.905 33.9635 60.9473C25.8252 56.333 24.4211 55.4625 24.0747 54.8163C23.721 54.1569 23.6708 53.4954 23.6708 49.494C23.6708 45.4673 23.6247 44.8693 23.2836 44.4587C22.6938 43.7486 18.1141 41.115 17.4692 41.115C17.1569 41.115 16.7819 41.2344 16.6359 41.3804ZM84.8544 53.4658C83.4029 54.296 82.059 55.2106 81.8679 55.4979C81.5849 55.9233 81.5088 56.8879 81.459 60.6796C81.4192 63.7185 81.3066 65.5182 81.1354 65.8547C80.8343 66.4469 80.8785 66.4201 69.2425 73.0253C64.4364 75.7535 57.0441 79.9496 52.8152 82.3503C46.8205 85.7531 45.0532 86.8557 44.7959 87.3534C44.2944 88.3231 44.3097 98.6663 44.8132 99.17C45.0045 99.3612 45.3337 99.5176 45.545 99.5176C45.756 99.5176 48.3622 98.1389 51.3361 96.4539C54.3102 94.769 62.6667 90.0338 69.9062 85.9312C77.1456 81.8289 83.3425 78.1787 83.6772 77.8197L84.2856 77.1671V72.4442C84.2856 66.9329 84.2128 67.1342 86.7336 65.662C87.659 65.1218 88.3974 64.5125 88.5985 64.1238C88.8673 63.6037 88.9312 62.4675 88.9312 58.2017C88.9312 53.1952 88.908 52.8981 88.4802 52.4391C88.2322 52.1727 87.9085 51.9553 87.7612 51.9557C87.6139 51.9562 86.3058 52.6358 84.8544 53.4658ZM0.442444 71.2012C0.0252193 71.6184 0 71.9385 0 76.8348C0 83.0529 0.0190279 83.1206 2.12396 84.3519C2.89801 84.8048 3.78223 85.4731 4.08862 85.8374L4.64566 86.4993V91.2576V96.0159L5.36463 96.6952C5.76018 97.0689 8.37325 98.6614 11.1717 100.234C13.9702 101.807 22.2246 106.487 29.515 110.635C36.8054 114.782 42.9865 118.217 43.2511 118.268C43.517 118.319 43.9006 118.191 44.1092 117.983C44.4486 117.643 44.4798 117.034 44.4207 111.886C44.359 106.508 44.3285 106.139 43.9126 105.725C43.5188 105.333 37.2042 101.704 17.0341 90.2749C13.6881 88.379 10.3185 86.4734 9.54595 86.0403C8.748 85.593 8.00757 84.9939 7.83148 84.6534C7.59632 84.1986 7.52154 82.9965 7.5211 79.674C7.52088 74.3697 7.45762 74.1768 5.30933 72.915C3.36943 71.7757 1.39038 70.7587 1.11252 70.7587C0.987312 70.7587 0.685788 70.9578 0.442444 71.2012Z" fill="black"/>
<path d="M130.392 18.8896H184.512V28.5696H141.612V52.7696H181.982V62.4496H141.612V88.9596H184.512V98.6396H130.392V18.8896ZM204.123 98.6396H194.113V18.8896H204.123V98.6396ZM224.511 72.3496C224.951 85.1096 233.971 91.2696 242.771 91.2696C251.571 91.2696 256.411 87.3096 258.941 81.4796H269.281C266.531 91.7096 257.181 100.07 242.771 100.07C224.071 100.07 213.731 86.6496 213.731 69.1596C213.731 50.4596 226.271 38.4696 242.441 38.4696C260.481 38.4696 271.371 53.6496 270.051 72.3496H224.511ZM224.621 63.7696H259.491C259.271 55.4096 253.001 47.0496 242.441 47.0496C233.531 47.0496 225.501 51.8896 224.621 63.7696ZM298.23 84.7796L314.29 39.4596H324.63L302.3 98.6396H293.39L271.06 39.4596H282.17L298.23 84.7796ZM324.715 83.0196C324.715 69.0496 340.445 64.9796 364.755 62.2296V60.7996C364.755 50.0196 358.705 46.3896 351.335 46.3896C343.085 46.3896 338.245 50.8996 337.805 58.1596H327.465C328.455 45.3996 339.675 38.2496 351.225 38.2496C367.505 38.2496 374.875 46.0596 374.765 62.6696L374.655 76.3096C374.545 86.2096 375.095 93.0296 376.195 98.6396H366.075C365.745 96.4396 365.415 94.0196 365.305 90.4996C361.675 96.5496 355.515 100.07 345.065 100.07C333.955 100.07 324.715 93.9096 324.715 83.0196ZM365.525 70.1496C347.375 72.0196 335.825 74.6596 335.825 82.7996C335.825 88.4096 340.115 92.1496 347.265 92.1496C356.615 92.1496 365.525 87.8596 365.525 73.8896V70.1496ZM390.341 24.6096H400.351V39.4596H411.571V47.4896H400.351V82.5796C400.351 88.7396 400.791 90.2796 406.511 90.2796H411.571V98.6396H404.311C392.981 98.6396 390.341 96.1096 390.341 83.7896V47.4896H380.991V39.4596H390.341V24.6096ZM427.225 72.3496C427.665 85.1096 436.685 91.2696 445.485 91.2696C454.285 91.2696 459.125 87.3096 461.655 81.4796H471.995C469.245 91.7096 459.895 100.07 445.485 100.07C426.785 100.07 416.445 86.6496 416.445 69.1596C416.445 50.4596 428.985 38.4696 445.155 38.4696C463.195 38.4696 474.085 53.6496 472.765 72.3496H427.225ZM427.335 63.7696H462.205C461.985 55.4096 455.715 47.0496 445.155 47.0496C436.245 47.0496 428.215 51.8896 427.335 63.7696Z" fill="black"/>
<path d="M471.897 19.8502V17.9411H483.272V19.8502H478.686V32.6396H476.476V19.8502H471.897ZM485.786 17.9411H488.478L493.157 29.3669H493.329L498.009 17.9411H500.7V32.6396H498.59V22.0033H498.454L494.119 32.6181H492.367L488.033 21.9961H487.896V32.6396H485.786V17.9411Z" fill="black"/>
</svg>
