<svg width="1000" height="1000" viewBox="0 0 1000 1000" fill="none" xmlns="http://www.w3.org/2000/svg">
<rect width="1000" height="1000" fill="white"/>
<path fill-rule="evenodd" clip-rule="evenodd" d="M517.08 237.604C511.926 240.217 505.975 243.972 503.855 245.949L500 249.544V275.044C500 308.58 499.527 308.046 519 296.528C533.453 287.979 532.996 289.148 532.998 260.669C532.999 248.192 532.561 236.83 532.025 235.419C530.619 231.722 527.898 232.12 517.08 237.604ZM448.189 286.126C447.528 286.923 447.015 296.98 446.817 313.033L446.5 338.668L449 341.348C450.375 342.822 454.315 345.604 457.756 347.53C467.227 352.833 467 352.141 467 375.675C467 391.901 467.312 396.709 468.531 399.278C469.705 401.752 472.757 404.063 481.604 409.18C493.118 415.838 496.53 416.924 498.8 414.654C500.718 412.736 500.473 364.669 498.526 360.905C497.642 359.195 494.467 356.61 490.587 354.44C479.772 348.392 480.001 349.038 479.996 324.469C479.993 305.765 479.783 303.011 478.161 300.354C476.905 298.297 472.685 295.39 464.732 291.104C452.906 284.731 450.058 283.874 448.189 286.126ZM608.5 338.468C602.45 342.057 596.723 345.974 595.772 347.173C594.264 349.077 594.041 351.962 594.021 369.854C594 387.355 593.741 390.859 592.248 393.808C590.716 396.836 585.121 400.317 547 421.961C515.139 440.051 503.033 447.422 501.755 449.507C500.22 452.012 500.01 455.318 500.005 477.033C500.001 498.139 500.227 501.939 501.571 503.283C503.901 505.612 506.22 505.228 512.678 501.44C517.272 498.746 565.667 471.252 596.566 453.782C605.774 448.576 605.433 449.64 606 424.33C606.577 398.568 606.03 400.024 617.701 393.199C621.292 391.099 624.806 388.195 625.589 386.682C627.478 383.029 627.668 334.922 625.8 333.054C623.475 330.729 619.39 332.008 608.5 338.468ZM374.2 420.054C372.515 421.739 372.508 469.68 374.192 473.376C374.88 474.885 378.203 477.668 382.04 479.947C394.006 487.056 393.422 485.519 394 511.412C394.498 533.712 394.511 533.825 397 536.195C398.375 537.504 410.3 544.659 423.5 552.094C436.7 559.529 457.978 571.562 470.785 578.833C495.308 592.756 498.236 593.747 499.536 588.567C499.847 587.326 499.967 575.194 499.801 561.608C499.516 538.258 499.388 536.794 497.452 534.859C496.325 533.734 476.109 521.873 452.527 508.503C415.739 487.645 409.392 483.71 407.826 480.789C406.227 477.808 406 474.818 406 456.73C406 438.528 405.792 435.825 404.25 433.969C401.584 430.759 380.882 418.854 377.967 418.854C376.555 418.854 374.86 419.394 374.2 420.054ZM682.571 474.684C676.01 478.437 669.935 482.571 669.071 483.87C667.792 485.793 667.448 490.153 667.223 507.293C667.043 521.03 666.534 529.165 665.76 530.686C664.399 533.363 664.599 533.242 612 563.1C590.275 575.432 556.859 594.4 537.743 605.252C510.645 620.634 502.656 625.618 501.493 627.868C499.226 632.251 499.295 679.006 501.571 681.283C502.436 682.147 503.924 682.854 504.879 682.854C505.833 682.854 517.614 676.622 531.057 669.005C544.501 661.389 582.275 639.984 615 621.439C647.725 602.895 675.737 586.395 677.25 584.772L680 581.822V560.473C680 535.56 679.671 536.47 691.066 529.815C695.249 527.373 698.587 524.619 699.496 522.862C700.711 520.511 701 515.375 701 496.092C701 473.461 700.895 472.118 698.961 470.043C697.84 468.839 696.377 467.856 695.711 467.858C695.045 467.86 689.132 470.932 682.571 474.684ZM301 554.854C299.114 556.74 299 558.187 299 580.32C299 608.428 299.086 608.734 308.601 614.3C312.1 616.347 316.097 619.368 317.482 621.015L320 624.007V645.516V667.025L323.25 670.096C325.038 671.785 336.85 678.984 349.5 686.093C362.15 693.203 399.463 714.359 432.418 733.108C465.373 751.856 493.314 767.383 494.51 767.611C495.712 767.841 497.446 767.265 498.389 766.322C499.923 764.788 500.064 762.035 499.797 738.762C499.518 714.451 499.38 712.787 497.5 710.916C495.72 709.144 467.176 692.736 376 641.074C360.875 632.504 345.643 623.89 342.151 621.932C338.544 619.91 335.197 617.202 334.401 615.663C333.338 613.607 333 608.173 332.998 593.154C332.997 569.177 332.711 568.305 323 562.601C314.231 557.451 305.285 552.854 304.029 552.854C303.463 552.854 302.1 553.754 301 554.854Z" fill="#303030"/>
</svg>
