<svg width="564" height="191" viewBox="0 0 564 191" fill="none" xmlns="http://www.w3.org/2000/svg">
<path fill-rule="evenodd" clip-rule="evenodd" d="M67.134 99.3151L77.9856 94.6167C83.9539 92.0325 89.262 89.6822 89.7811 89.3937C91.2977 88.551 93.3289 86.6162 94.5393 84.8615L95.6627 83.233L61.9315 82.401C31.7669 81.6568 28.0158 81.6012 26.4546 81.8756C19.6829 83.0656 14.3454 88.2562 12.8771 95.0797C12.6866 95.9647 12.523 97.0234 12.5137 97.432L12.4966 98.1747L67.134 99.3151ZM94.9786 121.58L94.7383 120.976C93.7744 118.555 90.9856 115.38 88.6972 114.097C88.0163 113.716 83.0839 111.29 77.7361 108.706L68.0128 104.008L55.7696 103.728C41.7846 103.407 41.8656 103.4 37.9829 105.2C36.2026 106.026 35.583 106.467 33.7653 108.203C31.9476 109.939 31.4785 110.538 30.5725 112.279C29.3763 114.576 28.5799 117.17 28.5403 118.896L28.5137 120.056L94.9786 121.58ZM64.3118 77.8334L97.8206 78.5935L105.884 61.8307L75.542 61.2013C47.019 60.61 45.1222 60.5939 43.8957 60.9349C38.1114 62.5428 33.8497 66.3498 31.9152 71.6373C31.4306 72.9614 30.8338 75.73 30.8101 76.7632C30.8039 77.0306 35.4221 77.1782 64.3118 77.8334ZM104.22 143.092L96.9298 126.08L79.1262 125.683C61.5149 125.291 61.3036 125.291 59.5736 125.721C54.9112 126.88 50.8306 129.897 48.6247 133.817C47.6826 135.491 46.8649 137.778 46.6595 139.315C46.5669 140.007 46.4345 140.841 46.3651 141.168L46.2391 141.763L104.22 143.092ZM100.58 35.2026C100.905 38.1332 101.786 42.16 102.682 44.8236C103.295 46.6447 105.357 51.6712 108.798 59.7342C109.339 61.0018 111.362 65.7918 113.294 70.3787C115.226 74.9656 117.361 80.0295 118.039 81.6317C119.543 85.1855 120.201 86.2893 121.784 87.9102C124.042 90.2233 123.504 89.9284 139.708 97.7336C145.944 100.737 151.045 103.243 151.043 103.303C151.041 103.363 145.287 105.861 138.257 108.855C131.227 111.849 124.809 114.664 123.995 115.109C122.24 116.071 120.013 118.146 118.992 119.772C117.925 121.471 107.518 143.047 107.728 143.125C107.826 143.162 110.644 142.765 113.99 142.243C117.337 141.721 125.572 140.435 132.29 139.386C155.982 135.684 158.985 135.218 159.106 135.221C159.174 135.223 159.609 117.574 160.073 96.0012L160.917 56.7787L154.362 53.5762C150.756 51.8145 146.161 49.5753 144.152 48.6C142.142 47.6246 136.386 44.8229 131.362 42.3741C110.129 32.0254 100.93 27.5489 100.677 27.4416C100.304 27.2832 100.242 32.1705 100.58 35.2026Z" fill="#0051FF"/>
<path d="M203.885 53.25H258.005V62.93H215.105V87.13H255.475V96.81H215.105V123.32H258.005V133H203.885V53.25ZM279.816 133H269.806V53.25H279.816V133ZM302.404 106.71C302.844 119.47 311.864 125.63 320.664 125.63C329.464 125.63 334.304 121.67 336.834 115.84H347.174C344.424 126.07 335.074 134.43 320.664 134.43C301.964 134.43 291.624 121.01 291.624 103.52C291.624 84.82 304.164 72.83 320.334 72.83C338.374 72.83 349.264 88.01 347.944 106.71H302.404ZM302.514 98.13H337.384C337.164 89.77 330.894 81.41 320.334 81.41C311.424 81.41 303.394 86.25 302.514 98.13ZM378.323 119.14L394.383 73.82H404.723L382.393 133H373.483L351.153 73.82H362.263L378.323 119.14ZM407.008 117.38C407.008 103.41 422.738 99.34 447.048 96.59V95.16C447.048 84.38 440.998 80.75 433.628 80.75C425.378 80.75 420.538 85.26 420.098 92.52H409.758C410.748 79.76 421.968 72.61 433.518 72.61C449.798 72.61 457.168 80.42 457.058 97.03L456.948 110.67C456.838 120.57 457.388 127.39 458.488 133H448.368C448.038 130.8 447.708 128.38 447.598 124.86C443.968 130.91 437.808 134.43 427.358 134.43C416.248 134.43 407.008 128.27 407.008 117.38ZM447.818 104.51C429.668 106.38 418.118 109.02 418.118 117.16C418.118 122.77 422.408 126.51 429.558 126.51C438.908 126.51 447.818 122.22 447.818 108.25V104.51ZM474.834 58.97H484.844V73.82H496.064V81.85H484.844V116.94C484.844 123.1 485.284 124.64 491.004 124.64H496.064V133H488.804C477.474 133 474.834 130.47 474.834 118.15V81.85H465.484V73.82H474.834V58.97ZM513.918 106.71C514.358 119.47 523.378 125.63 532.178 125.63C540.978 125.63 545.818 121.67 548.348 115.84H558.688C555.938 126.07 546.588 134.43 532.178 134.43C513.478 134.43 503.138 121.01 503.138 103.52C503.138 84.82 515.678 72.83 531.848 72.83C549.888 72.83 560.778 88.01 559.458 106.71H513.918ZM514.028 98.13H548.898C548.678 89.77 542.408 81.41 531.848 81.41C522.938 81.41 514.908 86.25 514.028 98.13Z" fill="black"/>
</svg>
