<svg width="2159" height="547" viewBox="0 0 2159 547" fill="none" xmlns="http://www.w3.org/2000/svg">
<path fill-rule="evenodd" clip-rule="evenodd" d="M298.119 100.128C295.277 100.556 292.353 104.385 286.407 115.462C278.267 130.63 169.213 319.708 160.907 333.054C159.276 335.677 154.213 344.747 149.657 353.21C145.101 361.674 135.805 377.612 128.998 388.629C111.003 417.756 100 436.788 100 438.788C100 444.636 106.771 448.357 111.449 445.081C112.255 444.517 116.907 438.863 121.789 432.517C135.922 414.143 143.251 405.657 168.325 378.63C194.22 350.718 209.424 335.33 219.38 326.958C226.999 320.552 226.639 320.757 240.378 315.034C254.987 308.948 260.27 305.603 271.58 295.276C280.37 287.25 293.853 275.488 297.282 272.855C299.146 271.424 302.461 273.608 309.146 280.667C314.166 285.969 314.966 287.371 324.83 308.123C330.547 320.149 336.339 331.777 337.7 333.96C339.5 336.846 342.314 339.493 348.005 343.651C357.876 350.863 368.394 358.857 390.713 376.111C400.426 383.619 420.152 398.56 434.551 409.312C448.949 420.064 465.407 432.492 471.124 436.931C476.841 441.369 482.796 445.419 484.358 445.931C489.495 447.612 498.129 444.996 500.115 441.157C501.292 438.879 501.241 438.646 498.29 432.975C494.663 426.003 473.703 388.857 463.933 372.085C460.11 365.521 453.811 354.607 449.938 347.831C446.064 341.056 439.428 329.622 435.192 322.422C430.956 315.223 424.43 303.789 420.691 297.014C416.952 290.238 409.859 278.284 404.93 270.45C393.488 252.265 381.416 232.282 373.346 218.165C369.859 212.065 364.234 202.536 360.846 196.991C357.458 191.446 350.965 180.325 346.416 172.279C331.826 146.468 306.993 104.587 305.031 102.481C303.069 100.374 301.046 99.6856 298.119 100.128ZM316.67 151.692C338.932 189.756 374.272 249.252 388.534 272.678C395.081 283.432 403.483 297.638 407.205 304.247C410.927 310.855 415.614 319.032 417.621 322.416C419.628 325.8 429.756 343.471 440.128 361.684C450.5 379.897 462.064 400.186 465.825 406.77C469.586 413.353 472.664 419.006 472.664 419.331C472.664 419.656 470.152 417.871 467.082 415.363C464.012 412.855 455.609 406.548 448.41 401.346C433.008 390.22 400.698 365.825 390.278 357.457C383.804 352.257 375.989 346.284 362.767 336.427C352.1 328.474 352.521 329.086 339.012 301.773C331.263 286.108 325.335 275.096 323.441 272.849C320.201 269.008 309.584 259.729 304.426 256.232C300.218 253.379 296.882 253.878 291.114 258.225C286.735 261.525 266.157 279.392 255.934 288.771C249.816 294.385 247.28 295.795 233.481 301.26C228.036 303.417 221.154 306.693 218.19 308.539C211.615 312.635 196.36 327.185 175.897 348.875C167.458 357.82 160.416 365.001 160.248 364.832C159.883 364.468 170.453 345.966 177.615 334.429C182.868 325.967 186.873 319.177 200.821 295.089C205.358 287.254 215.493 269.757 223.345 256.205C231.196 242.654 241.415 224.983 246.053 216.937C250.692 208.891 262.52 188.695 272.339 172.059C282.157 155.422 292.354 137.851 294.999 133.012C297.643 128.173 299.98 124.205 300.191 124.194C300.403 124.184 307.819 136.558 316.67 151.692Z" fill="white"/>
<path d="M630.833 100.359H861.321V141.584H678.617V244.648H850.546V285.874H678.617V398.776H861.321V440.001H630.833V100.359Z" fill="white"/>
<path d="M942.156 440.001H899.525V100.359H942.156V440.001Z" fill="white"/>
<path d="M1022.3 328.036C1024.18 382.379 1062.59 408.614 1100.07 408.614C1137.55 408.614 1158.16 391.749 1168.94 366.92H1212.97C1201.26 410.487 1161.44 446.091 1100.07 446.091C1020.43 446.091 976.393 388.938 976.393 314.451C976.393 234.81 1029.8 183.747 1098.66 183.747C1175.49 183.747 1221.87 248.396 1216.25 328.036H1022.3ZM1022.77 291.496H1171.28C1170.34 255.892 1143.64 220.288 1098.66 220.288C1060.72 220.288 1026.52 240.901 1022.77 291.496Z" fill="white"/>
<path d="M1329.58 380.974L1397.97 187.963H1442.01L1346.91 440.001H1308.96L1213.86 187.963H1261.18L1329.58 380.974Z" fill="white"/>
<path d="M1441.69 373.478C1441.69 313.982 1508.68 296.649 1612.21 284.937V278.847C1612.21 232.936 1586.44 217.477 1555.06 217.477C1519.92 217.477 1499.31 236.684 1497.43 267.603H1453.4C1457.61 213.261 1505.4 182.81 1554.59 182.81C1623.92 182.81 1655.31 216.072 1654.84 286.811L1654.37 344.901C1653.9 387.064 1656.25 416.109 1660.93 440.001H1617.83C1616.43 430.632 1615.02 420.325 1614.55 405.334C1599.09 431.1 1572.86 446.091 1528.35 446.091C1481.04 446.091 1441.69 419.857 1441.69 373.478ZM1615.49 318.667C1538.19 326.631 1489 337.874 1489 372.541C1489 396.433 1507.27 412.361 1537.72 412.361C1577.54 412.361 1615.49 394.091 1615.49 334.595V318.667Z" fill="white"/>
<path d="M1712.49 124.719H1755.12V187.963H1802.9V222.162H1755.12V371.604C1755.12 397.839 1756.99 404.397 1781.35 404.397H1802.9V440.001H1771.99C1723.73 440.001 1712.49 429.226 1712.49 376.757V222.162H1672.67V187.963H1712.49V124.719Z" fill="white"/>
<path d="M1863.89 328.036C1865.76 382.379 1904.18 408.614 1941.66 408.614C1979.13 408.614 1999.75 391.749 2010.52 366.92H2054.56C2042.85 410.487 2003.03 446.091 1941.66 446.091C1862.02 446.091 1817.98 388.938 1817.98 314.451C1817.98 234.81 1871.39 183.747 1940.25 183.747C2017.08 183.747 2063.46 248.396 2057.84 328.036H1863.89ZM1864.36 291.496H2012.86C2011.93 255.892 1985.22 220.288 1940.25 220.288C1902.3 220.288 1868.11 240.901 1864.36 291.496Z" fill="white"/>
</svg>
